<svg width="915" height="190" viewBox="0 0 915 190" fill="none" xmlns="http://www.w3.org/2000/svg">
<path d="M385.968 106.112H424.368V115.328H385.968V106.112ZM504.663 80.256C504.663 77.3547 504.066 74.7947 502.871 72.576C501.762 70.3573 500.226 68.5227 498.263 67.072C496.3 65.6213 494.039 64.512 491.479 63.744C488.919 62.976 486.231 62.592 483.415 62.592C480.94 62.592 478.594 62.9333 476.375 63.616C474.156 64.2133 472.151 65.1093 470.359 66.304C468.652 67.4987 467.287 68.992 466.263 70.784C465.239 72.4907 464.727 74.496 464.727 76.8V77.568C464.727 80.0427 465.239 82.176 466.263 83.968C467.287 85.6747 468.78 87.168 470.743 88.448C472.791 89.6427 475.308 90.6667 478.295 91.52C481.282 92.288 484.78 92.9707 488.791 93.568C498.178 95.0187 505.09 97.792 509.527 101.888C513.964 105.899 516.183 111.317 516.183 118.144V119.68C516.183 123.52 515.5 127.061 514.135 130.304C512.855 133.461 510.892 136.192 508.247 138.496C505.687 140.8 502.487 142.592 498.647 143.872C494.807 145.152 490.37 145.792 485.335 145.792C479.618 145.792 474.54 144.981 470.103 143.36C465.751 141.653 462.082 139.349 459.095 136.448C456.194 133.461 453.975 130.005 452.439 126.08C450.903 122.069 450.135 117.717 450.135 113.024V109.184H460.887V112.256C460.887 120.107 463.02 125.995 467.287 129.92C471.639 133.845 477.655 135.808 485.335 135.808C491.991 135.808 496.983 134.357 500.311 131.456C503.724 128.469 505.431 124.544 505.431 119.68V118.912C505.431 114.219 503.682 110.635 500.183 108.16C496.77 105.685 491.18 103.893 483.415 102.784C478.892 102.187 474.796 101.291 471.127 100.096C467.543 98.816 464.471 97.1947 461.911 95.232C459.351 93.184 457.388 90.752 456.023 87.936C454.658 85.12 453.975 81.792 453.975 77.952V76.416C453.975 72.9173 454.7 69.7173 456.151 66.816C457.602 63.9147 459.607 61.3973 462.167 59.264C464.812 57.1307 467.927 55.5093 471.511 54.4C475.18 53.2053 479.191 52.608 483.543 52.608C488.578 52.608 493.058 53.3333 496.983 54.784C500.994 56.2347 504.364 58.1973 507.095 60.672C509.826 63.0613 511.874 65.92 513.239 69.248C514.69 72.4907 515.415 75.904 515.415 79.488V84.864H504.663V80.256ZM544.382 107.136V144H533.63V54.4H565.63C570.238 54.4 574.249 55.0827 577.662 56.448C581.075 57.728 583.891 59.4773 586.11 61.696C588.414 63.9147 590.121 66.5173 591.23 69.504C592.425 72.4053 593.022 75.4773 593.022 78.72V82.56C593.022 85.8027 592.425 88.9173 591.23 91.904C590.121 94.8907 588.414 97.536 586.11 99.84C583.806 102.059 580.947 103.851 577.534 105.216C574.121 106.496 570.153 107.136 565.63 107.136H544.382ZM544.382 97.152H564.35C576.297 97.152 582.27 92.032 582.27 81.792V79.488C582.27 74.9653 580.777 71.3387 577.79 68.608C574.889 65.792 570.409 64.384 564.35 64.384H544.382V97.152ZM613.157 54.4H667.429V64.384H623.909V94.08H666.661V104.064H623.909V134.016H668.197V144H613.157V54.4ZM690.252 54.4H747.084V64.384H724.044V134.016H747.084V144H690.252V134.016H713.292V64.384H690.252V54.4ZM818.163 80.256C818.163 77.3547 817.566 74.7947 816.371 72.576C815.262 70.3573 813.726 68.5227 811.763 67.072C809.8 65.6213 807.539 64.512 804.979 63.744C802.419 62.976 799.731 62.592 796.915 62.592C794.44 62.592 792.094 62.9333 789.875 63.616C787.656 64.2133 785.651 65.1093 783.859 66.304C782.152 67.4987 780.787 68.992 779.763 70.784C778.739 72.4907 778.227 74.496 778.227 76.8V77.568C778.227 80.0427 778.739 82.176 779.763 83.968C780.787 85.6747 782.28 87.168 784.243 88.448C786.291 89.6427 788.808 90.6667 791.795 91.52C794.782 92.288 798.28 92.9707 802.291 93.568C811.678 95.0187 818.59 97.792 823.027 101.888C827.464 105.899 829.683 111.317 829.683 118.144V119.68C829.683 123.52 829 127.061 827.635 130.304C826.355 133.461 824.392 136.192 821.747 138.496C819.187 140.8 815.987 142.592 812.147 143.872C808.307 145.152 803.87 145.792 798.835 145.792C793.118 145.792 788.04 144.981 783.603 143.36C779.251 141.653 775.582 139.349 772.595 136.448C769.694 133.461 767.475 130.005 765.939 126.08C764.403 122.069 763.635 117.717 763.635 113.024V109.184H774.387V112.256C774.387 120.107 776.52 125.995 780.787 129.92C785.139 133.845 791.155 135.808 798.835 135.808C805.491 135.808 810.483 134.357 813.811 131.456C817.224 128.469 818.931 124.544 818.931 119.68V118.912C818.931 114.219 817.182 110.635 813.683 108.16C810.27 105.685 804.68 103.893 796.915 102.784C792.392 102.187 788.296 101.291 784.627 100.096C781.043 98.816 777.971 97.1947 775.411 95.232C772.851 93.184 770.888 90.752 769.523 87.936C768.158 85.12 767.475 81.792 767.475 77.952V76.416C767.475 72.9173 768.2 69.7173 769.651 66.816C771.102 63.9147 773.107 61.3973 775.667 59.264C778.312 57.1307 781.427 55.5093 785.011 54.4C788.68 53.2053 792.691 52.608 797.043 52.608C802.078 52.608 806.558 53.3333 810.483 54.784C814.494 56.2347 817.864 58.1973 820.595 60.672C823.326 63.0613 825.374 65.92 826.739 69.248C828.19 72.4907 828.915 75.904 828.915 79.488V84.864H818.163V80.256ZM848.282 54.4H902.554V64.384H859.034V94.08H901.786V104.064H859.034V134.016H903.322V144H848.282V54.4Z" fill="black"/>
<path d="M300 31L304.214 69.7491L320.781 34.4677L312.184 72.4855L339.31 44.495L318.835 77.6616L353.579 59.9953L323.444 84.7166L362.042 79.2889L325.513 92.886L363.781 100.285L324.817 101.284L358.609 120.709L321.431 109.002L347.086 138.346L315.724 115.202L330.461 151.286L308.312 119.213L310.534 158.127L300 120.6L289.466 158.127L291.688 119.213L269.539 151.286L284.276 115.202L252.914 138.346L278.569 109.002L241.391 120.709L275.183 101.284L236.219 100.285L274.487 92.886L237.958 79.2889L276.556 84.7166L246.421 59.9953L281.165 77.6616L260.69 44.495L287.816 72.4855L279.219 34.4677L295.786 69.7491L300 31Z" fill="black"/>
<path d="M58.368 121.728H19.968L13.44 144H1.92L29.056 54.4H49.28L76.416 144H64.896L58.368 121.728ZM38.4 59.008L22.912 111.744H55.424L39.936 59.008H38.4ZM97.575 54.4V113.792C97.575 121.045 99.239 126.549 102.567 130.304C105.98 133.973 110.972 135.808 117.543 135.808C124.114 135.808 129.063 133.973 132.391 130.304C135.804 126.549 137.511 121.045 137.511 113.792V54.4H148.263V113.792C148.263 124.203 145.532 132.139 140.071 137.6C134.61 143.061 127.1 145.792 117.543 145.792C107.986 145.792 100.476 143.061 95.015 137.6C89.5537 132.139 86.823 124.203 86.823 113.792V54.4H97.575ZM164.43 54.4H227.406V64.384H201.294V144H190.542V64.384H164.43V54.4Z" fill="black"/>
</svg>
